<?xml version="1.0" encoding="utf-8"?>
<!-- Generator: Adobe Illustrator 19.2.1, SVG Export Plug-In . SVG Version: 6.00 Build 0)  -->
<svg version="1.1" id="logo" xmlns="http://www.w3.org/2000/svg" xmlns:xlink="http://www.w3.org/1999/xlink" x="0px" y="0px"
	 viewBox="0 0 211 295" style="enable-background:new 0 0 211 295;" xml:space="preserve">
<style type="text/css">
	.st0{fill:#7143FF;}
	.st1{fill:none;stroke:#FFFFFF;stroke-width:3;stroke-linecap:round;stroke-linejoin:round;stroke-miterlimit:10;}
	.st2{fill:none;stroke:#FFFFFF;stroke-width:3;stroke-linecap:round;stroke-miterlimit:10;}
	.st3{fill:#FFFFFF;stroke:#FFFFFF;stroke-linecap:round;stroke-linejoin:round;stroke-miterlimit:10;}
	.st4{fill:none;stroke:#ED178E;stroke-width:3;stroke-linecap:round;stroke-linejoin:round;stroke-miterlimit:10;}
	.st5{fill:#FFFFFF;}
	.st6{fill:#FFFFFF;stroke:#FFFFFF;stroke-width:3;stroke-linecap:round;stroke-linejoin:round;stroke-miterlimit:10;}
	.st7{fill:#ED178E;stroke:#ED178E;stroke-width:2;stroke-linecap:round;stroke-linejoin:round;stroke-miterlimit:10;}
	.st8{enable-background:new    ;}
	.st9{fill:#191C28;}
	.st10{fill:#ED178E;}
</style>
<g>
	<g>
		<path class="st0" d="M131,118.7c0,4.7,0.3,9.4-0.1,14.1c-0.5,5.8-0.6,11.9-2.4,17.4c-5.1,16-20.6,26.9-37.4,26.9
			c-24.6,0.1-49.2,0-73.8,0c-2.6,0-5-0.2-6.1-2.9c-1.2-2.8,0.4-4.6,2.3-6.4c1.4-1.3,2.7-2.8,4.1-4.1c3.6-3.2,5-7.1,5-12
			c-0.1-25.6,0.1-51.3-0.1-76.9c-0.1-14.3,2.9-27.7,10.4-40c2.2-3.5,0.7-5.8-1.8-8.4c-6.6-6.7-6.6-16.4,0.2-22
			C33.4,2.7,36.4,1,39.1,1C41.7,1,69.1,0,84,1.7c26.3,3,46.7,27.2,47,53.7c0.1,10.9,1.2,33.2,1.2,33.2L131,118.7z M47.1,133.3H27.8
			c0,3.7-0.2,7.1,0,10.5c0.3,4.9,4.6,8.6,9.6,8.6c5,0,9.3-3.6,9.6-8.6C47.3,140.4,47.1,137,47.1,133.3"/>
	</g>
	<g>
		<path class="st1" d="M32,15.2c0.8-2.1,2.2-3.9,4.1-5.5c2.2-1.8,5.2-2.8,7.8-2.8c1.1,0,2.1,0,3.2,0"/>
	</g>
	<g>
		<path class="st2" d="M121.9,147.4c-3.5,8.7-10.1,15.7-18.2,19.9"/>
	</g>
	<g>
		<g>
			<path class="st3" d="M77.8,23.3c21.5,0,38.8,16.3,38.8,41.1s-14,22.5-14,22.5v0.3c0,4.5-3.7,6.4-8.3,6.4c-4.6,0-8.3-1.9-8.3-6.4
				c0,4.5-3.7,6.4-8.3,6.4c-4.6,0-8.3-1.9-8.3-6.4c0,4.5-3.7,6.4-8.3,6.4c-4.6,0-8.3-1.9-8.3-6.4c0,0-13.6,0-13.6-22.8
				C39,41.6,56.3,23.3,77.8,23.3"/>
		</g>
		<g>
			<g>
				<path class="st4" d="M53.9,63.7c4.1-4.4,12.5-1.6,15.3,2.3"/>
			</g>
			<g>
				<path class="st4" d="M101.7,62.8c-4.1-4.4-12.5-1.6-15.3,2.3"/>
			</g>
		</g>
	</g>
	<g>
		<path class="st0" d="M139.4,89.6l-12.1-0.1l-1.3,23.9h13c8.1-0.3,14.6-5.6,14.7-11.8C153.8,95.3,147.5,90.1,139.4,89.6"/>
	</g>
	<g>
		<path class="st5" d="M141.1,110.2V92.8c5.4,1.1,9.7,4.6,9.6,8.7C150.7,105.7,146.5,109.2,141.1,110.2"/>
	</g>
	<g>
		<path class="st6" d="M47.1,133.3H27.8c0,3.7-0.2,7.1,0,10.5c0.3,4.9,4.6,8.6,9.6,8.6c5,0,9.3-3.6,9.6-8.6
			C47.3,140.4,47.1,137,47.1,133.3"/>
	</g>
	<g>
		<g>
			<path class="st7" d="M155.1,41.3v-4.5c0-1.5-1.2-2.8-2.8-2.8h-2.1h-0.5h-2.1c-1.5,0-2.8,1.2-2.8,2.8v129.3c0,1.5,1.2,2.8,2.8,2.8
				h2.1h0.5h2.1c1.5,0,2.8-1.2,2.8-2.8V56.8"/>
		</g>
		<g>
			<path class="st7" d="M155,42.7c36.5,0,53.7,8.7,53.7,39.8c-6.9-21.1-22.4-25.7-53.5-25.7L155,42.7z"/>
		</g>
	</g>
	<g>
		<g>
			<g class="st8">
				<path class="st9" d="M49.1,207.5c2.1,0.9,3.1,2,3.1,3.4c0,0.6-0.3,1.4-0.8,2.7c-0.5,1.2-1,2.3-1.3,3.2l-5.4,13.1
					c-0.5,1.4-1.3,2.4-2.4,3c-0.5,0.2-1.1,0.3-1.9,0.3c-0.8,0-1.5-0.3-2.2-0.9c-0.7-0.6-1.2-1.2-1.4-1.7l-0.4-0.8
					c-0.3-0.7-1.2-3.2-2.9-7.6c-0.3,0.8-0.8,2.1-1.4,3.8c-0.6,1.8-1,2.9-1.2,3.3c-0.2,0.4-0.3,0.7-0.3,0.9c0,0.1-0.2,0.4-0.4,0.8
					c-0.2,0.4-0.5,0.7-0.8,1c-0.8,0.8-1.7,1.2-2.7,1.2c-1,0-1.9-0.3-2.5-0.9c-0.7-0.6-1.1-1.2-1.4-1.7l-7.4-18
					c-0.3-1-0.5-1.6-0.5-1.9c0-1.3,0.9-2.3,2.8-3.1c1-0.4,1.9-0.6,2.5-0.6c0.7,0,1.2,0.1,1.6,0.4c0.4,0.3,0.7,0.6,0.9,0.8
					c0.2,0.3,0.3,0.6,0.4,0.9c0.6,1.3,1.7,4.4,3.5,9.2l2.9-7.9c0.2-0.7,0.6-1.2,1.1-1.7c0.9-0.9,1.9-1.4,2.9-1.4s1.8,0.3,2.5,0.8
					c0.7,0.5,1.2,1,1.4,1.6l0.4,0.8c1.6,4.6,2.6,7.2,2.9,7.8l3-8.1c0.8-2.1,2-3.1,3.5-3.1C47.8,207,48.5,207.2,49.1,207.5z"/>
			</g>
			<g class="st8">
				<path class="st9" d="M79.9,217.1c0,2-0.5,3.5-1.5,4.5c-1,1-2.1,1.4-3.3,1.4H63.4c0,0.9,0.5,1.7,1.6,2.3c1.1,0.6,2.2,0.9,3.2,0.9
					c1.9,0,3.4-0.2,4.5-0.6l0.5-0.2c0.8-0.4,1.4-0.5,2-0.5c1,0,1.9,0.7,2.7,2.2c0.4,0.9,0.6,1.6,0.6,2.3c0,2.9-3.5,4.4-10.4,4.4
					c-2.4,0-4.6-0.4-6.4-1.2c-1.9-0.8-3.3-1.9-4.4-3.3c-2.1-2.6-3.1-5.6-3.1-8.9c0-4.1,1.3-7.4,4-9.9c2.7-2.5,6-3.7,10-3.7
					c4.5,0,7.9,1.6,10,4.8C79.3,213.3,79.9,215.1,79.9,217.1z M69.5,218.6c1.2,0,1.9-0.5,1.9-1.6c0-0.8-0.3-1.4-0.9-1.8
					c-0.6-0.5-1.4-0.7-2.4-0.7c-1.1,0-2.1,0.4-3.2,1.3c-1,0.9-1.6,1.8-1.6,2.8H69.5z"/>
				<path class="st9" d="M97.2,207.4c2.9,0,5.6,1.3,8,3.9c2.4,2.6,3.6,5.6,3.6,9c0,3.4-1.2,6.4-3.6,9c-2.4,2.6-5,3.8-7.8,3.8
					c-2.8,0-4.8-0.8-5.9-2.4c-0.3,1.6-1.7,2.4-4.2,2.4c-2.1,0-3.3-0.4-3.8-1.3c-0.2-0.5-0.4-0.9-0.4-1.3c0-0.4-0.1-0.9-0.1-1.7
					v-29.2c0-0.8,0-1.3,0.1-1.7c0-0.4,0.2-0.8,0.4-1.2c0.5-0.9,1.7-1.3,3.8-1.3c2.1,0,3.3,0.4,3.7,1.3c0.3,0.5,0.4,0.9,0.5,1.3
					c0,0.4,0.1,0.9,0.1,1.7v10.2C92.9,208.2,94.8,207.4,97.2,207.4z M92.9,223.2c0.8,0.9,1.8,1.3,3,1.3c1.2,0,2.2-0.4,3.1-1.3
					c0.8-0.9,1.3-1.9,1.3-2.9c0-1.1-0.4-2.1-1.2-3c-0.8-0.9-1.8-1.3-3.1-1.3c-1.3,0-2.3,0.5-3.1,1.4c-0.8,0.9-1.2,1.9-1.2,3
					C91.7,221.3,92.1,222.3,92.9,223.2z"/>
			</g>
			<g class="st8">
				<path class="st10" d="M129.3,196.6c0.2-0.5,0.7-0.8,1.3-1c0.6-0.2,1.4-0.3,2.5-0.3s1.9,0.1,2.5,0.3c0.6,0.2,1.1,0.5,1.3,1
					c0.2,0.5,0.4,0.9,0.4,1.3c0,0.4,0.1,0.9,0.1,1.7v29.2c0,0.8,0,1.3-0.1,1.7c0,0.4-0.2,0.8-0.5,1.2c-0.5,0.9-1.9,1.3-4.1,1.3
					c-2.3,0-3.5-0.8-3.8-2.4c-1.4,1.6-3.3,2.4-5.7,2.4c-2.9,0-5.6-1.3-8-3.8c-2.4-2.6-3.6-5.6-3.6-9c0-3.4,1.2-6.4,3.6-9
					c2.4-2.6,5.1-3.9,8-3.9c2.4,0,4.3,0.8,5.6,2.4v-10.3c0-0.8,0-1.3,0.1-1.7C129,197.5,129.1,197.1,129.3,196.6z M121.4,223.2
					c0.8,0.9,1.9,1.3,3.1,1.3c1.2,0,2.2-0.4,3-1.3c0.8-0.9,1.2-1.9,1.2-2.9c0-1.1-0.4-2-1.2-3c-0.8-0.9-1.8-1.4-3.1-1.4
					s-2.4,0.4-3.1,1.3c-0.8,0.9-1.2,1.9-1.2,3C120.1,221.3,120.5,222.3,121.4,223.2z"/>
			</g>
			<g class="st8">
				<path class="st10" d="M166.2,217.1c0,2-0.5,3.5-1.5,4.5c-1,1-2.1,1.4-3.3,1.4h-11.6c0,0.9,0.5,1.7,1.6,2.3
					c1.1,0.6,2.2,0.9,3.2,0.9c1.9,0,3.4-0.2,4.5-0.6l0.5-0.2c0.8-0.4,1.4-0.5,2-0.5c1,0,1.9,0.7,2.7,2.2c0.4,0.9,0.6,1.6,0.6,2.3
					c0,2.9-3.5,4.4-10.4,4.4c-2.4,0-4.6-0.4-6.4-1.2c-1.9-0.8-3.3-1.9-4.4-3.3c-2.1-2.6-3.1-5.6-3.1-8.9c0-4.1,1.3-7.4,4-9.9
					c2.7-2.5,6-3.7,10-3.7c4.5,0,7.9,1.6,10,4.8C165.6,213.3,166.2,215.1,166.2,217.1z M155.9,218.6c1.2,0,1.9-0.5,1.9-1.6
					c0-0.8-0.3-1.4-0.9-1.8s-1.4-0.7-2.4-0.7c-1.1,0-2.1,0.4-3.2,1.3c-1,0.9-1.6,1.8-1.6,2.8H155.9z"/>
			</g>
			<g class="st8">
				<path class="st10" d="M193.9,207.9c1.7,1,2.5,2.1,2.5,3.2c0,0.7-0.3,1.6-1,2.7l-10.1,17.4c-0.3,0.6-0.8,1.1-1.6,1.5
					c-0.7,0.4-1.4,0.7-2.1,0.7c-0.7,0-1.4-0.2-2-0.5s-1.1-0.7-1.3-1.1l-0.4-0.5l-10.2-17.4c-0.7-1.1-1-2-1-2.6
					c0-1.2,0.8-2.3,2.5-3.3c1.2-0.7,2.2-1.1,2.9-1.1s1.3,0.2,1.7,0.7c0.4,0.4,0.8,1.1,1.3,2l6.4,12.3l6.4-12.3
					c0.4-0.6,0.6-1.1,0.8-1.3c0.2-0.3,0.5-0.6,0.9-0.8c0.4-0.3,0.9-0.4,1.6-0.4C191.9,206.9,192.8,207.2,193.9,207.9z"/>
			</g>
		</g>
		<g>
			<g class="st8">
				<path class="st9" d="M36.7,252.7c0.7,0.2,1.3,0.6,1.8,1.2c0.5,0.5,0.7,1.4,0.7,2.6s-0.4,2.5-1.1,4c-0.7,1.4-1.8,2.1-3.1,2.1
					c-0.7,0-1.3-0.1-1.9-0.5c-0.6-0.3-1.4-0.5-2.5-0.5c-1,0-2,0.4-2.9,1.1c-0.9,0.7-1.3,1.6-1.3,2.6v11.9c0,0.9,0,1.5-0.1,1.9
					c-0.1,0.4-0.2,0.9-0.5,1.5c-0.6,1-2,1.5-4.4,1.5c-1.8,0-3.1-0.3-3.9-1c-0.6-0.5-0.9-1.3-1-2.4c0-0.4,0-0.9,0-1.6v-19.8
					c0-0.9,0-1.5,0.1-2c0.1-0.4,0.2-0.9,0.5-1.4c0.5-1,2-1.5,4.4-1.5c2.3,0,3.7,0.4,4.2,1.3c0.4,0.6,0.6,1.2,0.6,1.9
					c0.2-0.3,0.5-0.6,0.8-1c0.4-0.4,1.1-0.9,2.3-1.5c1.2-0.6,2.2-1,3.1-1c0.9,0,1.6,0,2.2,0.1C35.3,252.3,36,252.4,36.7,252.7z"/>
			</g>
			<g class="st8">
				<path class="st9" d="M69.3,263.7c0,2.3-0.6,4-1.7,5.1c-1.1,1.1-2.4,1.7-3.8,1.7H50.4c0,1.1,0.6,1.9,1.9,2.7
					c1.2,0.7,2.5,1.1,3.7,1.1c2.2,0,3.9-0.2,5.1-0.7l0.6-0.2c0.9-0.4,1.7-0.6,2.3-0.6c1.2,0,2.2,0.8,3.1,2.5c0.5,1,0.7,1.9,0.7,2.6
					c0,3.4-4,5-12,5c-2.8,0-5.3-0.5-7.4-1.4c-2.2-1-3.9-2.2-5.1-3.8c-2.4-3.1-3.6-6.5-3.6-10.2c0-4.7,1.5-8.5,4.6-11.4
					c3.1-2.8,6.9-4.3,11.5-4.3c5.2,0,9.1,1.8,11.5,5.5C68.7,259.2,69.3,261.3,69.3,263.7z M57.4,265.3c1.4,0,2.1-0.6,2.1-1.8
					c0-0.9-0.3-1.6-1-2.1c-0.7-0.5-1.6-0.8-2.8-0.8c-1.2,0-2.4,0.5-3.6,1.5c-1.2,1-1.8,2.1-1.8,3.2H57.4z"/>
				<path class="st9" d="M92.3,255.5c0.2-2.1,1.7-3.2,4.5-3.2c1.5,0,2.6,0.1,3.3,0.3c0.7,0.2,1.2,0.6,1.5,1.2
					c0.3,0.6,0.5,1.1,0.5,1.5c0.1,0.4,0.1,1.1,0.1,2v19.8c0,0.9,0,1.5-0.1,1.9c-0.1,0.4-0.2,0.9-0.5,1.5c-0.5,1-1.8,1.5-3.9,1.5
					c-2.1,0-3.4-0.3-4.1-0.8c-0.7-0.5-1.1-1.3-1.2-2.2c-1.4,2-3.7,3-7,3c-3.3,0-6.3-1.5-9.1-4.5c-2.8-3-4.2-6.4-4.2-10.4
					c0-3.9,1.4-7.4,4.2-10.3c2.8-3,5.9-4.4,9.2-4.4c1.3,0,2.4,0.2,3.5,0.7c1.1,0.5,1.8,0.9,2.2,1.3
					C91.7,254.7,92.1,255.1,92.3,255.5z M82,267.3c0,1.2,0.5,2.4,1.5,3.4c1,1,2.2,1.5,3.6,1.5c1.4,0,2.6-0.5,3.5-1.5
					c0.9-1,1.4-2.1,1.4-3.4c0-1.2-0.4-2.4-1.3-3.4c-0.9-1.1-2.1-1.6-3.6-1.6c-1.5,0-2.7,0.5-3.6,1.6C82.5,264.9,82,266,82,267.3z"/>
				<path class="st9" d="M106.7,290.2v-33c0-0.9,0-1.5,0.1-1.9c0.1-0.4,0.2-0.9,0.5-1.4c0.5-1,1.8-1.5,3.8-1.5c2,0,3.3,0.3,4,0.8
					c0.7,0.5,1.1,1.3,1.2,2.2c1.4-2,3.7-2.9,6.8-2.9s6,1.5,8.7,4.4c2.7,2.9,4.1,6.3,4.1,10.1s-1.4,7.2-4.1,10.1
					c-2.7,2.9-5.6,4.4-8.7,4.4c-3.1,0-5.3-0.9-6.7-2.6v11.4c0,0.9,0,1.5-0.1,1.9c-0.1,0.4-0.2,0.9-0.5,1.4c-0.3,0.5-0.8,0.9-1.4,1.2
					c-0.7,0.2-1.6,0.3-2.8,0.3s-2.1-0.1-2.8-0.3c-0.7-0.2-1.2-0.6-1.5-1.1c-0.3-0.5-0.5-1-0.5-1.4
					C106.7,291.7,106.7,291.1,106.7,290.2z M117.9,263.6c-0.9,1-1.3,2.1-1.3,3.3c0,1.2,0.4,2.3,1.3,3.3c0.9,1,2,1.5,3.4,1.5
					s2.5-0.5,3.5-1.5c1-1,1.4-2.1,1.4-3.3s-0.5-2.4-1.4-3.4c-0.9-1-2.1-1.5-3.5-1.5S118.7,262.6,117.9,263.6z"/>
				<path class="st9" d="M168.3,263.7c0,2.3-0.6,4-1.7,5.1c-1.2,1.1-2.4,1.7-3.8,1.7h-13.4c0,1.1,0.6,1.9,1.9,2.7
					c1.2,0.7,2.5,1.1,3.7,1.1c2.2,0,3.9-0.2,5.1-0.7l0.6-0.2c0.9-0.4,1.7-0.6,2.3-0.6c1.2,0,2.2,0.8,3.1,2.5c0.5,1,0.7,1.9,0.7,2.6
					c0,3.4-4,5-12,5c-2.8,0-5.3-0.5-7.4-1.4c-2.2-1-3.9-2.2-5.1-3.8c-2.4-3.1-3.6-6.5-3.6-10.2c0-4.7,1.5-8.5,4.6-11.4
					c3.1-2.8,6.9-4.3,11.5-4.3c5.2,0,9.1,1.8,11.5,5.5C167.6,259.2,168.3,261.3,168.3,263.7z M156.4,265.3c1.4,0,2.1-0.6,2.1-1.8
					c0-0.9-0.3-1.6-1-2.1c-0.7-0.5-1.6-0.8-2.8-0.8c-1.2,0-2.4,0.5-3.6,1.5c-1.2,1-1.8,2.1-1.8,3.2H156.4z"/>
				<path class="st9" d="M192.2,252.7c0.7,0.2,1.3,0.6,1.8,1.2c0.5,0.5,0.7,1.4,0.7,2.6s-0.4,2.5-1.1,4c-0.7,1.4-1.8,2.1-3.1,2.1
					c-0.7,0-1.3-0.1-1.9-0.5c-0.6-0.3-1.4-0.5-2.5-0.5c-1,0-2,0.4-2.9,1.1c-0.9,0.7-1.3,1.6-1.3,2.6v11.9c0,0.9,0,1.5-0.1,1.9
					c-0.1,0.4-0.2,0.9-0.5,1.5c-0.6,1-2,1.5-4.4,1.5c-1.8,0-3.1-0.3-3.9-1c-0.6-0.5-0.9-1.3-1-2.4c0-0.4,0-0.9,0-1.6v-19.8
					c0-0.9,0-1.5,0.1-2c0.1-0.4,0.2-0.9,0.5-1.4c0.5-1,2-1.5,4.4-1.5c2.3,0,3.7,0.4,4.2,1.3c0.4,0.6,0.6,1.2,0.6,1.9
					c0.2-0.3,0.5-0.6,0.8-1c0.4-0.4,1.1-0.9,2.3-1.5s2.2-1,3.1-1c0.9,0,1.6,0,2.2,0.1C190.8,252.3,191.5,252.4,192.2,252.7z"/>
			</g>
		</g>
	</g>
</g>
</svg>
