<?xml version="1.0" encoding="utf-8"?>
<!-- Generator: Adobe Illustrator 16.0.0, SVG Export Plug-In . SVG Version: 6.00 Build 0)  -->
<!DOCTYPE svg PUBLIC "-//W3C//DTD SVG 1.1//EN" "http://www.w3.org/Graphics/SVG/1.1/DTD/svg11.dtd">
<svg version="1.1" id="Layer_1" xmlns="http://www.w3.org/2000/svg" xmlns:xlink="http://www.w3.org/1999/xlink" x="0px" y="0px"
	 width="211px" height="295px" viewBox="0 0 211 295" enable-background="new 0 0 211 295" xml:space="preserve">
<g>
	<g>
		<defs>
			<rect id="SVGID_1_" x="-382" y="-71.5" width="1040" height="405"/>
		</defs>
		<clipPath id="SVGID_2_">
			<use xlink:href="#SVGID_1_"  overflow="visible"/>
		</clipPath>
		<path clip-path="url(#SVGID_2_)" fill="#7143FF" d="M130.952,118.682c0,4.682,0.295,9.394-0.074,14.053
			c-0.462,5.829-0.646,11.877-2.396,17.369c-5.11,16.027-20.576,26.89-37.375,26.933c-24.61,0.063-49.22,0.002-73.83,0.039
			c-2.566,0.004-4.962-0.151-6.112-2.894c-1.154-2.752,0.406-4.621,2.252-6.375c1.393-1.324,2.672-2.771,4.097-4.059
			c3.56-3.215,5.016-7.145,4.996-11.963c-0.103-25.634,0.054-51.27-0.087-76.902c-0.079-14.298,2.915-27.708,10.428-39.953
			c2.172-3.54,0.661-5.847-1.825-8.371c-6.627-6.726-6.622-16.39,0.19-22.027c2.162-1.789,5.161-3.566,7.838-3.566
			c2.676,0,30.091-0.948,44.905,0.72c26.26,2.955,46.747,27.187,47.003,53.662c0.104,10.879,1.175,33.21,1.175,33.21
			L130.952,118.682z M47.089,133.273H27.76c0,3.679-0.196,7.122,0.046,10.535c0.349,4.922,4.616,8.583,9.614,8.583
			c4.988,0,9.255-3.65,9.62-8.583C47.293,140.396,47.089,136.953,47.089,133.273"/>
	</g>
	<g>
		<defs>
			<rect id="SVGID_3_" x="-382" y="-71.5" width="1040" height="405"/>
		</defs>
		<clipPath id="SVGID_4_">
			<use xlink:href="#SVGID_3_"  overflow="visible"/>
		</clipPath>
		
			<path clip-path="url(#SVGID_4_)" fill="none" stroke="#FFFFFF" stroke-width="3" stroke-linecap="round" stroke-linejoin="round" stroke-miterlimit="10" d="
			M32.04,15.156c0.844-2.051,2.216-3.939,4.118-5.513c2.162-1.789,5.19-2.773,7.838-2.798c1.057-0.01,2.113-0.012,3.171-0.009"/>
	</g>
	<g>
		<defs>
			<rect id="SVGID_5_" x="-382" y="-71.5" width="1040" height="405"/>
		</defs>
		<clipPath id="SVGID_6_">
			<use xlink:href="#SVGID_5_"  overflow="visible"/>
		</clipPath>
		
			<path clip-path="url(#SVGID_6_)" fill="none" stroke="#FFFFFF" stroke-width="3" stroke-linecap="round" stroke-miterlimit="10" d="
			M121.852,147.384c-3.482,8.695-10.09,15.66-18.217,19.89"/>
	</g>
	<g>
		<defs>
			<rect id="SVGID_7_" x="-382" y="-71.5" width="1040" height="405"/>
		</defs>
		<clipPath id="SVGID_8_">
			<use xlink:href="#SVGID_7_"  overflow="visible"/>
		</clipPath>
		<path clip-path="url(#SVGID_8_)" fill="#FFFFFF" d="M77.778,23.341c21.482,0,38.799,16.337,38.799,41.09
			c0,24.753-14.026,22.483-14.026,22.483v0.322c0,4.506-3.731,6.442-8.333,6.442c-4.603,0-8.333-1.936-8.333-6.442
			c0,4.506-3.731,6.442-8.333,6.442c-4.603,0-8.334-1.936-8.334-6.442c0,4.506-3.73,6.442-8.333,6.442
			c-4.602,0-8.333-1.936-8.333-6.442c0,0-13.573,0.03-13.573-22.805C38.979,41.595,56.296,23.341,77.778,23.341"/>
	</g>
	<g>
		<defs>
			<rect id="SVGID_9_" x="-382" y="-71.5" width="1040" height="405"/>
		</defs>
		<clipPath id="SVGID_10_">
			<use xlink:href="#SVGID_9_"  overflow="visible"/>
		</clipPath>
		
			<path clip-path="url(#SVGID_10_)" fill="none" stroke="#FFFFFF" stroke-linecap="round" stroke-linejoin="round" stroke-miterlimit="10" d="
			M77.778,23.341c21.482,0,38.799,16.337,38.799,41.09c0,24.753-14.026,22.483-14.026,22.483v0.322c0,4.506-3.731,6.442-8.333,6.442
			c-4.603,0-8.333-1.936-8.333-6.442c0,4.506-3.731,6.442-8.333,6.442c-4.603,0-8.334-1.936-8.334-6.442
			c0,4.506-3.73,6.442-8.333,6.442c-4.602,0-8.333-1.936-8.333-6.442c0,0-13.573,0.03-13.573-22.805
			C38.979,41.595,56.296,23.341,77.778,23.341"/>
	</g>
	<g>
		<defs>
			<rect id="SVGID_11_" x="-382" y="-71.5" width="1040" height="405"/>
		</defs>
		<clipPath id="SVGID_12_">
			<use xlink:href="#SVGID_11_"  overflow="visible"/>
		</clipPath>
		<path clip-path="url(#SVGID_12_)" fill="#7143FF" d="M139.45,89.581l-12.062-0.055l-1.336,23.89h13.026
			c8.06-0.289,14.569-5.576,14.667-11.823C153.844,95.346,147.494,90.105,139.45,89.581 M141.133,110.181V92.842
			c5.357,1.062,9.678,4.648,9.614,8.704C150.682,105.673,146.504,109.25,141.133,110.181"/>
	</g>
	<g>
		<defs>
			<rect id="SVGID_13_" x="-382" y="-71.5" width="1040" height="405"/>
		</defs>
		<clipPath id="SVGID_14_">
			<use xlink:href="#SVGID_13_"  overflow="visible"/>
		</clipPath>
		<path clip-path="url(#SVGID_14_)" fill="#ED178E" d="M155.146,41.291v-4.459c0-1.521-1.244-2.765-2.765-2.765h-2.11h-0.506h-2.111
			c-1.521,0-2.764,1.244-2.764,2.765v129.277c0,1.521,1.243,2.767,2.764,2.767h2.111h0.506h2.11c1.521,0,2.765-1.244,2.765-2.767
			V56.779"/>
	</g>
	<g>
		<defs>
			<rect id="SVGID_15_" x="-382" y="-71.5" width="1040" height="405"/>
		</defs>
		<clipPath id="SVGID_16_">
			<use xlink:href="#SVGID_15_"  overflow="visible"/>
		</clipPath>
		
			<path clip-path="url(#SVGID_16_)" fill="none" stroke="#ED178E" stroke-width="2" stroke-linecap="round" stroke-linejoin="round" stroke-miterlimit="10" d="
			M155.146,41.291v-4.459c0-1.521-1.244-2.765-2.765-2.765h-2.11h-0.506h-2.111c-1.521,0-2.764,1.244-2.764,2.765v129.277
			c0,1.521,1.243,2.767,2.764,2.767h2.111h0.506h2.11c1.521,0,2.765-1.244,2.765-2.767V56.779"/>
	</g>
	<g>
		<g display="none">
			<defs>
				<rect id="SVGID_17_" x="-382" y="-71.5" width="1040" height="405"/>
			</defs>
			<clipPath id="SVGID_18_" display="inline">
				<use xlink:href="#SVGID_17_"  overflow="visible"/>
			</clipPath>
			<path display="inline" clip-path="url(#SVGID_18_)" fill="#ED178E" d="M-151.233,42.113c0,0,0.418,16.174,0.722,15.778
				c3.167-4.113,45.866-6.273,50.991,34.951C-98.055,86.049-91.903,42.107-151.233,42.113"/>
		</g>
		<g display="none">
			<defs>
				<rect id="SVGID_19_" x="-382" y="-71.5" width="1040" height="405"/>
			</defs>
			<clipPath id="SVGID_20_" display="inline">
				<use xlink:href="#SVGID_19_"  overflow="visible"/>
			</clipPath>
			
				<path display="inline" clip-path="url(#SVGID_20_)" fill="none" stroke="#ED178E" stroke-width="2" stroke-linecap="round" stroke-linejoin="round" stroke-miterlimit="10" d="
				M-151.233,42.113c0,0,0.418,16.174,0.722,15.778c3.167-4.113,45.866-6.273,50.991,34.951
				C-98.055,86.049-91.903,42.107-151.233,42.113z"/>
		</g>
		<g display="none">
			<defs>
				<rect id="SVGID_21_" x="-382" y="-71.5" width="1040" height="405"/>
			</defs>
			<clipPath id="SVGID_22_" display="inline">
				<use xlink:href="#SVGID_21_"  overflow="visible"/>
			</clipPath>
			<path display="inline" clip-path="url(#SVGID_22_)" fill="#ED178E" d="M438.592,41.304c0,0,34.424-1.761,48.256,0
				c14.289,1.819,32.471,3.652,30.137,46.386c-2.658-7.984-6.816-30.224-43.416-30.224c-36.596,0-36.596,2.068-36.596,2.068v-18.23
				H438.592z"/>
		</g>
		<g display="none">
			<defs>
				<rect id="SVGID_23_" x="-382" y="-71.5" width="1040" height="405"/>
			</defs>
			<clipPath id="SVGID_24_" display="inline">
				<use xlink:href="#SVGID_23_"  overflow="visible"/>
			</clipPath>
			
				<path display="inline" clip-path="url(#SVGID_24_)" fill="none" stroke="#ED178E" stroke-width="2" stroke-linecap="round" stroke-linejoin="round" stroke-miterlimit="10" d="
				M438.592,41.304c0,0,34.424-1.761,48.256,0c14.289,1.819,32.471,3.652,30.137,46.386c-2.658-7.984-6.816-30.224-43.416-30.224
				c-36.596,0-36.596,2.068-36.596,2.068v-18.23H438.592z"/>
		</g>
		<g>
			<defs>
				<rect id="SVGID_25_" x="-382" y="-71.5" width="1040" height="405"/>
			</defs>
			<clipPath id="SVGID_26_">
				<use xlink:href="#SVGID_25_"  overflow="visible"/>
			</clipPath>
			<path clip-path="url(#SVGID_26_)" fill="#ED178E" d="M155.034,42.693c36.466,0,53.651,8.667,53.651,39.805
				c-6.937-21.071-22.399-25.719-53.539-25.719L155.034,42.693z"/>
		</g>
		<g>
			<defs>
				<rect id="SVGID_27_" x="-382" y="-71.5" width="1040" height="405"/>
			</defs>
			<clipPath id="SVGID_28_">
				<use xlink:href="#SVGID_27_"  overflow="visible"/>
			</clipPath>
			
				<path clip-path="url(#SVGID_28_)" fill="none" stroke="#ED178E" stroke-width="2" stroke-linecap="round" stroke-linejoin="round" stroke-miterlimit="10" d="
				M155.034,42.693c36.466,0,53.651,8.667,53.651,39.805c-6.937-21.071-22.399-25.719-53.539-25.719L155.034,42.693z"/>
		</g>
	</g>
	<g>
		<defs>
			<rect id="SVGID_29_" x="-382" y="-71.5" width="1040" height="405"/>
		</defs>
		<clipPath id="SVGID_30_">
			<use xlink:href="#SVGID_29_"  overflow="visible"/>
		</clipPath>
		
			<path clip-path="url(#SVGID_30_)" fill="none" stroke="#ED178E" stroke-width="3" stroke-linecap="round" stroke-linejoin="round" stroke-miterlimit="10" d="
			M53.903,63.667c4.091-4.401,12.548-1.614,15.31,2.332"/>
	</g>
	<g>
		<defs>
			<rect id="SVGID_31_" x="-382" y="-71.5" width="1040" height="405"/>
		</defs>
		<clipPath id="SVGID_32_">
			<use xlink:href="#SVGID_31_"  overflow="visible"/>
		</clipPath>
		
			<path clip-path="url(#SVGID_32_)" fill="none" stroke="#ED178E" stroke-width="3" stroke-linecap="round" stroke-linejoin="round" stroke-miterlimit="10" d="
			M101.653,62.818c-4.091-4.401-12.548-1.614-15.31,2.332"/>
	</g>
	<g>
  	<defs>
  		<rect id="SVGID_33_" x="-382" y="-71.5" width="1040" height="405"></rect>
  	</defs>
  	<clipPath id="SVGID_34_">
  		<use xmlns:xlink="http://www.w3.org/1999/xlink" xlink:href="#SVGID_3_" overflow="visible"></use>
  	</clipPath>

  	<path clip-path="url(#SVGID_4_)" fill="#FFFFFF" stroke="#FFFFFF" stroke-width="3" stroke-linecap="round" stroke-linejoin="round" stroke-miterlimit="10" d="
  			M47.089,133.273H27.76c0,3.679-0.196,7.122,0.046,10.535c0.349,4.922,4.616,8.583,9.614,8.583
  			c4.988,0,9.255-3.65,9.62-8.583C47.293,140.396,47.089,136.953,47.089,133.273"></path>
  </g>
</g>
<text transform="matrix(1 0 0 1 14.1782 232.292)" fill="#191C28" font-family="'FredokaOne-Regular'" font-size="48.9754">w</text>
<text transform="matrix(1 0 0 1 53.0156 232.292)" fill="#191C28" font-family="'FredokaOne-Regular'" font-size="48.9754">eb</text>
<text transform="matrix(1 0 0 1 110.0723 232.292)" fill="#ED178E" font-family="'FredokaOne-Regular'" font-size="48.9754">d</text>
<text transform="matrix(1 0 0 1 139.3594 232.292)" fill="#ED178E" font-family="'FredokaOne-Regular'" font-size="48.9754">e</text>
<text transform="matrix(1 0 0 1 165.9512 232.292)" fill="#ED178E" font-family="'FredokaOne-Regular'" font-size="48.9754">v</text>
<text transform="matrix(1 0 0 1 14.1782 281.2676)" fill="#191C28" font-family="'FredokaOne-Regular'" font-size="56.5101">r</text>
<text transform="matrix(1 0 0 1 38.3643 281.2676)" fill="#191C28" font-family="'FredokaOne-Regular'" font-size="56.5101">eaper</text>
</svg>
